<mxfile host="app.diagrams.net" modified="2020-05-11T07:33:32.751Z" agent="5.0 (Macintosh)" etag="LXYX8OXGyEePOsa_Sk-9" version="13.0.9" type="github" pages="2">
  <diagram id="Vh8yJrfoOHnO6MgG_yZo" name="二维码道闸">
    <mxGraphModel dx="786" dy="447" grid="1" gridSize="10" guides="1" tooltips="1" connect="1" arrows="1" fold="1" page="1" pageScale="1" pageWidth="1654" pageHeight="2336" math="0" shadow="0">
      <root>
        <mxCell id="0" />
        <mxCell id="1" parent="0" />
        <mxCell id="L7Ixwgq-BmJPLcaVqYF3-19" style="edgeStyle=orthogonalEdgeStyle;rounded=0;orthogonalLoop=1;jettySize=auto;html=1;exitX=0.52;exitY=0.544;exitDx=0;exitDy=0;exitPerimeter=0;" parent="1" source="L7Ixwgq-BmJPLcaVqYF3-2" target="L7Ixwgq-BmJPLcaVqYF3-13" edge="1">
          <mxGeometry relative="1" as="geometry">
            <Array as="points">
              <mxPoint x="400" y="252" />
              <mxPoint x="400" y="251" />
            </Array>
          </mxGeometry>
        </mxCell>
        <mxCell id="L7Ixwgq-BmJPLcaVqYF3-20" value="4.读码信息" style="edgeLabel;html=1;align=center;verticalAlign=middle;resizable=0;points=[];" parent="L7Ixwgq-BmJPLcaVqYF3-19" vertex="1" connectable="0">
          <mxGeometry x="0.0107" y="2" relative="1" as="geometry">
            <mxPoint x="-9" y="-17.9" as="offset" />
          </mxGeometry>
        </mxCell>
        <mxCell id="L7Ixwgq-BmJPLcaVqYF3-2" value="道闸" style="html=1;points=[];perimeter=orthogonalPerimeter;shape=umlLifeline;participant=label;fontFamily=Helvetica;fontSize=12;fontColor=#000000;align=center;strokeColor=#000000;fillColor=#ffffff;recursiveResize=0;container=1;collapsible=0;" parent="1" vertex="1">
          <mxGeometry x="350" y="40" width="100" height="390" as="geometry" />
        </mxCell>
        <mxCell id="L7Ixwgq-BmJPLcaVqYF3-6" style="edgeStyle=orthogonalEdgeStyle;rounded=0;orthogonalLoop=1;jettySize=auto;html=1;" parent="1" source="L7Ixwgq-BmJPLcaVqYF3-4" target="L7Ixwgq-BmJPLcaVqYF3-5" edge="1">
          <mxGeometry relative="1" as="geometry">
            <Array as="points">
              <mxPoint x="660" y="120" />
              <mxPoint x="660" y="120" />
            </Array>
          </mxGeometry>
        </mxCell>
        <mxCell id="L7Ixwgq-BmJPLcaVqYF3-7" value="1.请求二维码" style="edgeLabel;html=1;align=center;verticalAlign=middle;resizable=0;points=[];" parent="L7Ixwgq-BmJPLcaVqYF3-6" vertex="1" connectable="0">
          <mxGeometry x="0.1476" y="-5" relative="1" as="geometry">
            <mxPoint x="-9.5" y="-25" as="offset" />
          </mxGeometry>
        </mxCell>
        <mxCell id="L7Ixwgq-BmJPLcaVqYF3-10" value="3.扫码" style="edgeStyle=orthogonalEdgeStyle;rounded=0;orthogonalLoop=1;jettySize=auto;html=1;" parent="1" source="L7Ixwgq-BmJPLcaVqYF3-4" edge="1">
          <mxGeometry x="0.0474" y="-10" relative="1" as="geometry">
            <mxPoint x="401" y="173" as="targetPoint" />
            <Array as="points">
              <mxPoint x="520" y="173" />
              <mxPoint x="520" y="173" />
            </Array>
            <mxPoint x="1" as="offset" />
          </mxGeometry>
        </mxCell>
        <mxCell id="L7Ixwgq-BmJPLcaVqYF3-4" value="" style="shape=umlLifeline;participant=umlActor;perimeter=lifelinePerimeter;whiteSpace=wrap;html=1;container=1;collapsible=0;recursiveResize=0;verticalAlign=top;spacingTop=36;labelBackgroundColor=#ffffff;outlineConnect=0;" parent="1" vertex="1">
          <mxGeometry x="530" y="40" width="20" height="390" as="geometry" />
        </mxCell>
        <mxCell id="L7Ixwgq-BmJPLcaVqYF3-8" style="edgeStyle=orthogonalEdgeStyle;rounded=0;orthogonalLoop=1;jettySize=auto;html=1;" parent="1" source="L7Ixwgq-BmJPLcaVqYF3-5" target="L7Ixwgq-BmJPLcaVqYF3-4" edge="1">
          <mxGeometry relative="1" as="geometry">
            <Array as="points">
              <mxPoint x="650" y="150" />
              <mxPoint x="650" y="150" />
            </Array>
          </mxGeometry>
        </mxCell>
        <mxCell id="L7Ixwgq-BmJPLcaVqYF3-9" value="2. 发送二维码" style="edgeLabel;html=1;align=center;verticalAlign=middle;resizable=0;points=[];" parent="L7Ixwgq-BmJPLcaVqYF3-8" vertex="1" connectable="0">
          <mxGeometry x="-0.0143" y="-1" relative="1" as="geometry">
            <mxPoint x="3.5" y="-9" as="offset" />
          </mxGeometry>
        </mxCell>
        <mxCell id="L7Ixwgq-BmJPLcaVqYF3-28" style="edgeStyle=orthogonalEdgeStyle;rounded=0;orthogonalLoop=1;jettySize=auto;html=1;" parent="1" edge="1">
          <mxGeometry relative="1" as="geometry">
            <mxPoint x="719.5" y="344" as="sourcePoint" />
            <mxPoint x="539.5" y="344" as="targetPoint" />
            <Array as="points">
              <mxPoint x="570" y="344" />
              <mxPoint x="570" y="344" />
            </Array>
          </mxGeometry>
        </mxCell>
        <mxCell id="L7Ixwgq-BmJPLcaVqYF3-30" value="6.1 校验结果" style="edgeLabel;html=1;align=center;verticalAlign=middle;resizable=0;points=[];" parent="L7Ixwgq-BmJPLcaVqYF3-28" vertex="1" connectable="0">
          <mxGeometry x="0.6611" y="-62" relative="1" as="geometry">
            <mxPoint x="62" y="53" as="offset" />
          </mxGeometry>
        </mxCell>
        <mxCell id="L7Ixwgq-BmJPLcaVqYF3-29" style="edgeStyle=orthogonalEdgeStyle;rounded=0;orthogonalLoop=1;jettySize=auto;html=1;" parent="1" edge="1">
          <mxGeometry relative="1" as="geometry">
            <mxPoint x="719.5" y="374" as="sourcePoint" />
            <mxPoint x="129.5" y="374" as="targetPoint" />
            <Array as="points">
              <mxPoint x="270" y="374" />
              <mxPoint x="270" y="374" />
            </Array>
          </mxGeometry>
        </mxCell>
        <mxCell id="L7Ixwgq-BmJPLcaVqYF3-31" value="6.2校验结果（物&lt;font color=&quot;#3333FF&quot;&gt;json&lt;/font&gt;)" style="edgeLabel;html=1;align=center;verticalAlign=middle;resizable=0;points=[];" parent="L7Ixwgq-BmJPLcaVqYF3-29" vertex="1" connectable="0">
          <mxGeometry x="0.5237" y="178" relative="1" as="geometry">
            <mxPoint x="191.5" y="-192" as="offset" />
          </mxGeometry>
        </mxCell>
        <mxCell id="L7Ixwgq-BmJPLcaVqYF3-5" value="i深建" style="shape=umlLifeline;perimeter=lifelinePerimeter;whiteSpace=wrap;html=1;container=1;collapsible=0;recursiveResize=0;outlineConnect=0;" parent="1" vertex="1">
          <mxGeometry x="670" y="40" width="100" height="400" as="geometry" />
        </mxCell>
        <mxCell id="L7Ixwgq-BmJPLcaVqYF3-25" value="" style="html=1;points=[];perimeter=orthogonalPerimeter;" parent="L7Ixwgq-BmJPLcaVqYF3-5" vertex="1">
          <mxGeometry x="50" y="251" width="10" height="40" as="geometry" />
        </mxCell>
        <mxCell id="L7Ixwgq-BmJPLcaVqYF3-26" value="身份校验" style="edgeStyle=orthogonalEdgeStyle;html=1;align=left;spacingLeft=2;endArrow=block;rounded=0;entryX=1;entryY=0;" parent="L7Ixwgq-BmJPLcaVqYF3-5" edge="1">
          <mxGeometry relative="1" as="geometry">
            <mxPoint x="61" y="258" as="sourcePoint" />
            <Array as="points">
              <mxPoint x="86" y="258" />
              <mxPoint x="86" y="278" />
            </Array>
            <mxPoint x="66" y="278" as="targetPoint" />
          </mxGeometry>
        </mxCell>
        <mxCell id="L7Ixwgq-BmJPLcaVqYF3-23" style="edgeStyle=orthogonalEdgeStyle;rounded=0;orthogonalLoop=1;jettySize=auto;html=1;" parent="1" source="L7Ixwgq-BmJPLcaVqYF3-12" target="L7Ixwgq-BmJPLcaVqYF3-5" edge="1">
          <mxGeometry relative="1" as="geometry">
            <Array as="points">
              <mxPoint x="420" y="280" />
              <mxPoint x="420" y="280" />
            </Array>
          </mxGeometry>
        </mxCell>
        <mxCell id="L7Ixwgq-BmJPLcaVqYF3-24" value="5.读码信息(&lt;font color=&quot;#6666FF&quot;&gt;物json&lt;/font&gt;)" style="edgeLabel;html=1;align=center;verticalAlign=middle;resizable=0;points=[];" parent="L7Ixwgq-BmJPLcaVqYF3-23" vertex="1" connectable="0">
          <mxGeometry x="0.1271" y="1" relative="1" as="geometry">
            <mxPoint x="1" y="-9" as="offset" />
          </mxGeometry>
        </mxCell>
        <mxCell id="L7Ixwgq-BmJPLcaVqYF3-32" style="edgeStyle=orthogonalEdgeStyle;rounded=0;orthogonalLoop=1;jettySize=auto;html=1;" parent="1" edge="1">
          <mxGeometry relative="1" as="geometry">
            <mxPoint x="129.5" y="390" as="sourcePoint" />
            <mxPoint x="259.5" y="390" as="targetPoint" />
            <Array as="points">
              <mxPoint x="210" y="390" />
              <mxPoint x="210" y="390" />
            </Array>
          </mxGeometry>
        </mxCell>
        <mxCell id="L7Ixwgq-BmJPLcaVqYF3-35" value="7.开门" style="edgeLabel;html=1;align=center;verticalAlign=middle;resizable=0;points=[];" parent="L7Ixwgq-BmJPLcaVqYF3-32" vertex="1" connectable="0">
          <mxGeometry x="0.2" y="-2" relative="1" as="geometry">
            <mxPoint as="offset" />
          </mxGeometry>
        </mxCell>
        <mxCell id="L7Ixwgq-BmJPLcaVqYF3-12" value="IoT 中台" style="shape=umlLifeline;perimeter=lifelinePerimeter;whiteSpace=wrap;html=1;container=1;collapsible=0;recursiveResize=0;outlineConnect=0;" parent="1" vertex="1">
          <mxGeometry x="80" y="40" width="100" height="390" as="geometry" />
        </mxCell>
        <mxCell id="GyiuYi_3hfn2CG6iuuA--1" style="edgeStyle=orthogonalEdgeStyle;rounded=0;orthogonalLoop=1;jettySize=auto;html=1;" parent="1" source="L7Ixwgq-BmJPLcaVqYF3-13" target="L7Ixwgq-BmJPLcaVqYF3-12" edge="1">
          <mxGeometry relative="1" as="geometry">
            <Array as="points">
              <mxPoint x="200" y="260" />
              <mxPoint x="200" y="260" />
            </Array>
          </mxGeometry>
        </mxCell>
        <mxCell id="GyiuYi_3hfn2CG6iuuA--2" value="4.1读码信息" style="edgeLabel;html=1;align=center;verticalAlign=middle;resizable=0;points=[];" parent="GyiuYi_3hfn2CG6iuuA--1" vertex="1" connectable="0">
          <mxGeometry x="-0.0846" y="-1" relative="1" as="geometry">
            <mxPoint x="-9.5" y="-9" as="offset" />
          </mxGeometry>
        </mxCell>
        <mxCell id="GyiuYi_3hfn2CG6iuuA--3" style="edgeStyle=orthogonalEdgeStyle;rounded=0;orthogonalLoop=1;jettySize=auto;html=1;entryX=0.5;entryY=0.928;entryDx=0;entryDy=0;entryPerimeter=0;" parent="1" source="L7Ixwgq-BmJPLcaVqYF3-13" target="L7Ixwgq-BmJPLcaVqYF3-2" edge="1">
          <mxGeometry relative="1" as="geometry">
            <Array as="points">
              <mxPoint x="290" y="402" />
              <mxPoint x="290" y="402" />
            </Array>
          </mxGeometry>
        </mxCell>
        <mxCell id="GyiuYi_3hfn2CG6iuuA--4" value="7.1开门" style="edgeLabel;html=1;align=center;verticalAlign=middle;resizable=0;points=[];" parent="GyiuYi_3hfn2CG6iuuA--3" vertex="1" connectable="0">
          <mxGeometry x="-0.153" relative="1" as="geometry">
            <mxPoint x="8" y="-11" as="offset" />
          </mxGeometry>
        </mxCell>
        <mxCell id="L7Ixwgq-BmJPLcaVqYF3-13" value="网关" style="shape=umlLifeline;perimeter=lifelinePerimeter;whiteSpace=wrap;html=1;container=1;collapsible=0;recursiveResize=0;outlineConnect=0;" parent="1" vertex="1">
          <mxGeometry x="210" y="40" width="100" height="390" as="geometry" />
        </mxCell>
        <mxCell id="L7Ixwgq-BmJPLcaVqYF3-17" value="" style="html=1;points=[];perimeter=orthogonalPerimeter;" parent="1" vertex="1">
          <mxGeometry x="394" y="195" width="10" height="40" as="geometry" />
        </mxCell>
        <mxCell id="L7Ixwgq-BmJPLcaVqYF3-18" value="读码" style="edgeStyle=orthogonalEdgeStyle;html=1;align=left;spacingLeft=2;endArrow=block;rounded=0;entryX=1;entryY=0;" parent="1" edge="1">
          <mxGeometry relative="1" as="geometry">
            <mxPoint x="399" y="194" as="sourcePoint" />
            <Array as="points">
              <mxPoint x="424" y="194" />
            </Array>
            <mxPoint x="404" y="214" as="targetPoint" />
          </mxGeometry>
        </mxCell>
        <mxCell id="L7Ixwgq-BmJPLcaVqYF3-33" value="" style="html=1;points=[];perimeter=orthogonalPerimeter;" parent="1" vertex="1">
          <mxGeometry x="394" y="430" width="10" height="40" as="geometry" />
        </mxCell>
        <mxCell id="L7Ixwgq-BmJPLcaVqYF3-34" value="开闸" style="edgeStyle=orthogonalEdgeStyle;html=1;align=left;spacingLeft=2;endArrow=block;rounded=0;entryX=1;entryY=0;" parent="1" target="L7Ixwgq-BmJPLcaVqYF3-33" edge="1">
          <mxGeometry relative="1" as="geometry">
            <mxPoint x="399" y="410" as="sourcePoint" />
            <Array as="points">
              <mxPoint x="424" y="410" />
            </Array>
          </mxGeometry>
        </mxCell>
        <mxCell id="L7Ixwgq-BmJPLcaVqYF3-36" value="劳务工" style="text;html=1;strokeColor=none;fillColor=none;align=center;verticalAlign=middle;whiteSpace=wrap;rounded=0;" parent="1" vertex="1">
          <mxGeometry x="555" y="62" width="40" height="20" as="geometry" />
        </mxCell>
      </root>
    </mxGraphModel>
  </diagram>
  <diagram id="-7MpnJjz2KP-hWbiSwSV" name="二维码PDA">
    <mxGraphModel dx="786" dy="447" grid="1" gridSize="10" guides="1" tooltips="1" connect="1" arrows="1" fold="1" page="1" pageScale="1" pageWidth="1654" pageHeight="2336" math="0" shadow="0">
      <root>
        <mxCell id="qsu86gLxwC861faWoEEM-0" />
        <mxCell id="qsu86gLxwC861faWoEEM-1" parent="qsu86gLxwC861faWoEEM-0" />
        <mxCell id="hvIxx1NsIZxOoVy5c5jc-0" style="edgeStyle=orthogonalEdgeStyle;rounded=0;orthogonalLoop=1;jettySize=auto;html=1;exitX=0.5;exitY=0.703;exitDx=0;exitDy=0;exitPerimeter=0;" parent="qsu86gLxwC861faWoEEM-1" source="hvIxx1NsIZxOoVy5c5jc-2" target="hvIxx1NsIZxOoVy5c5jc-20" edge="1">
          <mxGeometry relative="1" as="geometry">
            <Array as="points">
              <mxPoint x="180" y="251" />
              <mxPoint x="180" y="251" />
            </Array>
          </mxGeometry>
        </mxCell>
        <mxCell id="hvIxx1NsIZxOoVy5c5jc-1" value="4.读码信息" style="edgeLabel;html=1;align=center;verticalAlign=middle;resizable=0;points=[];" parent="hvIxx1NsIZxOoVy5c5jc-0" vertex="1" connectable="0">
          <mxGeometry x="0.0107" y="2" relative="1" as="geometry">
            <mxPoint x="-9" y="-17.9" as="offset" />
          </mxGeometry>
        </mxCell>
        <mxCell id="hvIxx1NsIZxOoVy5c5jc-2" value="PDA" style="html=1;points=[];perimeter=orthogonalPerimeter;shape=umlLifeline;participant=label;fontFamily=Helvetica;fontSize=12;fontColor=#000000;align=center;strokeColor=#000000;fillColor=#ffffff;recursiveResize=0;container=1;collapsible=0;" parent="qsu86gLxwC861faWoEEM-1" vertex="1">
          <mxGeometry x="350" y="40" width="100" height="390" as="geometry" />
        </mxCell>
        <mxCell id="hvIxx1NsIZxOoVy5c5jc-3" style="edgeStyle=orthogonalEdgeStyle;rounded=0;orthogonalLoop=1;jettySize=auto;html=1;" parent="qsu86gLxwC861faWoEEM-1" source="hvIxx1NsIZxOoVy5c5jc-6" target="hvIxx1NsIZxOoVy5c5jc-13" edge="1">
          <mxGeometry relative="1" as="geometry">
            <Array as="points">
              <mxPoint x="660" y="120" />
              <mxPoint x="660" y="120" />
            </Array>
          </mxGeometry>
        </mxCell>
        <mxCell id="hvIxx1NsIZxOoVy5c5jc-4" value="1.请求二维码" style="edgeLabel;html=1;align=center;verticalAlign=middle;resizable=0;points=[];" parent="hvIxx1NsIZxOoVy5c5jc-3" vertex="1" connectable="0">
          <mxGeometry x="0.1476" y="-5" relative="1" as="geometry">
            <mxPoint x="-9.5" y="-25" as="offset" />
          </mxGeometry>
        </mxCell>
        <mxCell id="hvIxx1NsIZxOoVy5c5jc-5" value="3.扫码" style="edgeStyle=orthogonalEdgeStyle;rounded=0;orthogonalLoop=1;jettySize=auto;html=1;" parent="qsu86gLxwC861faWoEEM-1" source="hvIxx1NsIZxOoVy5c5jc-6" edge="1">
          <mxGeometry x="0.0474" y="-10" relative="1" as="geometry">
            <mxPoint x="401" y="173" as="targetPoint" />
            <Array as="points">
              <mxPoint x="520" y="173" />
              <mxPoint x="520" y="173" />
            </Array>
            <mxPoint x="1" as="offset" />
          </mxGeometry>
        </mxCell>
        <mxCell id="hvIxx1NsIZxOoVy5c5jc-6" value="" style="shape=umlLifeline;participant=umlActor;perimeter=lifelinePerimeter;whiteSpace=wrap;html=1;container=1;collapsible=0;recursiveResize=0;verticalAlign=top;spacingTop=36;labelBackgroundColor=#ffffff;outlineConnect=0;" parent="qsu86gLxwC861faWoEEM-1" vertex="1">
          <mxGeometry x="530" y="40" width="20" height="390" as="geometry" />
        </mxCell>
        <mxCell id="hvIxx1NsIZxOoVy5c5jc-7" style="edgeStyle=orthogonalEdgeStyle;rounded=0;orthogonalLoop=1;jettySize=auto;html=1;" parent="qsu86gLxwC861faWoEEM-1" source="hvIxx1NsIZxOoVy5c5jc-13" target="hvIxx1NsIZxOoVy5c5jc-6" edge="1">
          <mxGeometry relative="1" as="geometry">
            <Array as="points">
              <mxPoint x="650" y="150" />
              <mxPoint x="650" y="150" />
            </Array>
          </mxGeometry>
        </mxCell>
        <mxCell id="hvIxx1NsIZxOoVy5c5jc-8" value="2. 发送二维码" style="edgeLabel;html=1;align=center;verticalAlign=middle;resizable=0;points=[];" parent="hvIxx1NsIZxOoVy5c5jc-7" vertex="1" connectable="0">
          <mxGeometry x="-0.0143" y="-1" relative="1" as="geometry">
            <mxPoint x="3.5" y="-9" as="offset" />
          </mxGeometry>
        </mxCell>
        <mxCell id="hvIxx1NsIZxOoVy5c5jc-9" style="edgeStyle=orthogonalEdgeStyle;rounded=0;orthogonalLoop=1;jettySize=auto;html=1;" parent="qsu86gLxwC861faWoEEM-1" edge="1">
          <mxGeometry relative="1" as="geometry">
            <mxPoint x="719.5" y="344" as="sourcePoint" />
            <mxPoint x="539.5" y="344" as="targetPoint" />
            <Array as="points">
              <mxPoint x="570" y="344" />
              <mxPoint x="570" y="344" />
            </Array>
          </mxGeometry>
        </mxCell>
        <mxCell id="hvIxx1NsIZxOoVy5c5jc-10" value="6.1校验结果" style="edgeLabel;html=1;align=center;verticalAlign=middle;resizable=0;points=[];" parent="hvIxx1NsIZxOoVy5c5jc-9" vertex="1" connectable="0">
          <mxGeometry x="0.6611" y="-62" relative="1" as="geometry">
            <mxPoint x="62" y="53" as="offset" />
          </mxGeometry>
        </mxCell>
        <mxCell id="hvIxx1NsIZxOoVy5c5jc-11" style="edgeStyle=orthogonalEdgeStyle;rounded=0;orthogonalLoop=1;jettySize=auto;html=1;" parent="qsu86gLxwC861faWoEEM-1" target="hvIxx1NsIZxOoVy5c5jc-20" edge="1">
          <mxGeometry relative="1" as="geometry">
            <mxPoint x="719.5" y="374" as="sourcePoint" />
            <mxPoint x="129.5" y="374" as="targetPoint" />
            <Array as="points">
              <mxPoint x="340" y="374" />
              <mxPoint x="340" y="374" />
            </Array>
          </mxGeometry>
        </mxCell>
        <mxCell id="hvIxx1NsIZxOoVy5c5jc-12" value="6.2校验结果(&lt;font color=&quot;#6666FF&quot;&gt;物json&lt;/font&gt;)" style="edgeLabel;html=1;align=center;verticalAlign=middle;resizable=0;points=[];" parent="hvIxx1NsIZxOoVy5c5jc-11" vertex="1" connectable="0">
          <mxGeometry x="0.5237" y="178" relative="1" as="geometry">
            <mxPoint x="179.5" y="-192" as="offset" />
          </mxGeometry>
        </mxCell>
        <mxCell id="hvIxx1NsIZxOoVy5c5jc-13" value="i深建" style="shape=umlLifeline;perimeter=lifelinePerimeter;whiteSpace=wrap;html=1;container=1;collapsible=0;recursiveResize=0;outlineConnect=0;" parent="qsu86gLxwC861faWoEEM-1" vertex="1">
          <mxGeometry x="670" y="40" width="100" height="400" as="geometry" />
        </mxCell>
        <mxCell id="hvIxx1NsIZxOoVy5c5jc-14" value="" style="html=1;points=[];perimeter=orthogonalPerimeter;" parent="hvIxx1NsIZxOoVy5c5jc-13" vertex="1">
          <mxGeometry x="50" y="251" width="10" height="40" as="geometry" />
        </mxCell>
        <mxCell id="hvIxx1NsIZxOoVy5c5jc-15" value="身份校验" style="edgeStyle=orthogonalEdgeStyle;html=1;align=left;spacingLeft=2;endArrow=block;rounded=0;entryX=1;entryY=0;" parent="hvIxx1NsIZxOoVy5c5jc-13" edge="1">
          <mxGeometry relative="1" as="geometry">
            <mxPoint x="61" y="258" as="sourcePoint" />
            <Array as="points">
              <mxPoint x="86" y="258" />
              <mxPoint x="86" y="278" />
            </Array>
            <mxPoint x="66" y="278" as="targetPoint" />
          </mxGeometry>
        </mxCell>
        <mxCell id="hvIxx1NsIZxOoVy5c5jc-16" style="edgeStyle=orthogonalEdgeStyle;rounded=0;orthogonalLoop=1;jettySize=auto;html=1;" parent="qsu86gLxwC861faWoEEM-1" source="hvIxx1NsIZxOoVy5c5jc-20" target="hvIxx1NsIZxOoVy5c5jc-13" edge="1">
          <mxGeometry relative="1" as="geometry">
            <Array as="points">
              <mxPoint x="420" y="280" />
              <mxPoint x="420" y="280" />
            </Array>
          </mxGeometry>
        </mxCell>
        <mxCell id="hvIxx1NsIZxOoVy5c5jc-17" value="5.读码信息解析(&lt;font color=&quot;#0000FF&quot;&gt;物json&lt;/font&gt;)" style="edgeLabel;html=1;align=center;verticalAlign=middle;resizable=0;points=[];" parent="hvIxx1NsIZxOoVy5c5jc-16" vertex="1" connectable="0">
          <mxGeometry x="0.1271" y="1" relative="1" as="geometry">
            <mxPoint x="1" y="-9" as="offset" />
          </mxGeometry>
        </mxCell>
        <mxCell id="hvIxx1NsIZxOoVy5c5jc-18" style="edgeStyle=orthogonalEdgeStyle;rounded=0;orthogonalLoop=1;jettySize=auto;html=1;entryX=0.52;entryY=0.921;entryDx=0;entryDy=0;entryPerimeter=0;" parent="qsu86gLxwC861faWoEEM-1" source="hvIxx1NsIZxOoVy5c5jc-20" edge="1">
          <mxGeometry relative="1" as="geometry">
            <mxPoint x="129.5" y="396" as="sourcePoint" />
            <mxPoint x="402" y="396.19000000000005" as="targetPoint" />
            <Array as="points">
              <mxPoint x="260" y="396" />
              <mxPoint x="260" y="396" />
            </Array>
          </mxGeometry>
        </mxCell>
        <mxCell id="hvIxx1NsIZxOoVy5c5jc-19" value="7.校验结果" style="edgeLabel;html=1;align=center;verticalAlign=middle;resizable=0;points=[];" parent="hvIxx1NsIZxOoVy5c5jc-18" vertex="1" connectable="0">
          <mxGeometry x="0.2" y="-2" relative="1" as="geometry">
            <mxPoint x="-13.5" y="11.91" as="offset" />
          </mxGeometry>
        </mxCell>
        <mxCell id="hvIxx1NsIZxOoVy5c5jc-20" value="IoT 中台" style="shape=umlLifeline;perimeter=lifelinePerimeter;whiteSpace=wrap;html=1;container=1;collapsible=0;recursiveResize=0;outlineConnect=0;" parent="qsu86gLxwC861faWoEEM-1" vertex="1">
          <mxGeometry x="150" y="40" width="100" height="390" as="geometry" />
        </mxCell>
        <mxCell id="hvIxx1NsIZxOoVy5c5jc-22" value="" style="html=1;points=[];perimeter=orthogonalPerimeter;" parent="qsu86gLxwC861faWoEEM-1" vertex="1">
          <mxGeometry x="394" y="195" width="10" height="40" as="geometry" />
        </mxCell>
        <mxCell id="hvIxx1NsIZxOoVy5c5jc-23" value="读码" style="edgeStyle=orthogonalEdgeStyle;html=1;align=left;spacingLeft=2;endArrow=block;rounded=0;entryX=1;entryY=0;" parent="qsu86gLxwC861faWoEEM-1" edge="1">
          <mxGeometry relative="1" as="geometry">
            <mxPoint x="399" y="194" as="sourcePoint" />
            <Array as="points">
              <mxPoint x="424" y="194" />
            </Array>
            <mxPoint x="404" y="214" as="targetPoint" />
          </mxGeometry>
        </mxCell>
        <mxCell id="hvIxx1NsIZxOoVy5c5jc-24" value="" style="html=1;points=[];perimeter=orthogonalPerimeter;" parent="qsu86gLxwC861faWoEEM-1" vertex="1">
          <mxGeometry x="394" y="430" width="10" height="40" as="geometry" />
        </mxCell>
        <mxCell id="hvIxx1NsIZxOoVy5c5jc-25" value="打卡提示" style="edgeStyle=orthogonalEdgeStyle;html=1;align=left;spacingLeft=2;endArrow=block;rounded=0;entryX=1;entryY=0;" parent="qsu86gLxwC861faWoEEM-1" target="hvIxx1NsIZxOoVy5c5jc-24" edge="1">
          <mxGeometry relative="1" as="geometry">
            <mxPoint x="399" y="410" as="sourcePoint" />
            <Array as="points">
              <mxPoint x="424" y="410" />
            </Array>
          </mxGeometry>
        </mxCell>
        <mxCell id="hvIxx1NsIZxOoVy5c5jc-26" value="劳务工" style="text;html=1;strokeColor=none;fillColor=none;align=center;verticalAlign=middle;whiteSpace=wrap;rounded=0;" parent="qsu86gLxwC861faWoEEM-1" vertex="1">
          <mxGeometry x="555" y="62" width="40" height="20" as="geometry" />
        </mxCell>
      </root>
    </mxGraphModel>
  </diagram>
</mxfile>
